Coordinates
version=1
nRows=12
nColumns=23
inDegrees=yes

Units are S.I. units (second, meters, Newtons, ...)
If the header above contains a line with 'inDegrees', this indicates whether rotational values are in degrees (yes) or radians (no).

endheader
time	pelvis_tilt	pelvis_list	pelvis_rotation	pelvis_tx	pelvis_ty	pelvis_tz	hip_flexion_r	hip_adduction_r	hip_rotation_r	knee_angle_r	knee_angle_r_beta	ankle_angle_r	subtalar_angle_r	mtp_angle_r	hip_flexion_l	hip_adduction_l	hip_rotation_l	knee_angle_l	knee_angle_l_beta	ankle_angle_l	subtalar_angle_l	mtp_angle_l
      7.50000000	     -5.64671860	      6.32896559	      7.16478656	      1.96840168	      0.97416506	      0.98152287	     -6.98431232	    -13.66273730	    -21.77364490	     60.86740250	      1.06233658	    -17.54846598	    -17.34899326	      0.00000000	     23.90579452	      9.50492243	     -7.11205295	     23.11538622	      0.40343960	     -0.19048141	     -8.14346884	      0.00000000
      7.50666667	     -5.66083327	      7.00541527	      7.38944730	      1.96647874	      0.96936234	      0.98034825	     -5.28393584	    -14.95946794	    -21.26807864	     64.95974773	      1.13376148	    -17.39306532	    -19.37480859	      0.00000000	     23.70401567	     10.46397139	     -6.53667803	     24.79258278	      0.43271220	      1.56450594	     -9.54966586	      0.00000000
      7.51333333	     -5.75727774	      7.70152687	      7.65717063	      1.96426542	      0.96450413	      0.97925611	     -3.37992050	    -16.21336140	    -20.60733137	     68.98885639	      1.20408269	    -17.15188950	    -21.40453164	      0.00000000	     23.62911677	     11.44376574	     -6.00385625	     26.52411691	      0.46293317	      3.33214352	    -10.84029172	      0.00000000
      7.52000000	     -5.87421040	      8.40983054	      7.92203088	      1.96182443	      0.95970628	      0.97830700	     -1.34233612	    -17.43319322	    -19.79743283	     72.93106644	      1.27288724	    -16.84859176	    -23.25629773	      0.00000000	     23.62435228	     12.41067648	     -5.52178407	     28.31952560	      0.49426896	      5.09026759	    -12.10895857	      0.00000000
      7.52666667	     -6.09203162	      9.10732981	      8.13906182	      1.95910120	      0.95501142	      0.97749849	      0.97234743	    -18.58806913	    -18.73730587	     76.78239730	      1.34010564	    -16.32777575	    -24.82287562	      0.00000000	     23.74104434	     13.35273540	     -5.07797741	     30.07059501	      0.52483089	      6.70076499	    -13.33532207	      0.00000000
      7.53333333	     -6.37131950	      9.81430283	      8.32476478	      1.95625196	      0.95053440	      0.97684336	      3.47379556	    -19.70586038	    -17.50729211	     80.49032088	      1.40482112	    -15.62188065	    -26.02719924	      0.00000000	     23.89079039	     14.28935911	     -4.64068641	     31.71704217	      0.55356681	      8.17197810	    -14.48599738	      0.00000000
      7.54000000	     -6.70848214	     10.51914432	      8.47868652	      1.95334297	      0.94634000	      0.97625396	      6.15242243	    -20.74934976	    -16.07893341	     84.01133833	      1.46627446	    -14.74891157	    -26.85083290	      0.00000000	     24.04049557	     15.21034808	     -4.21545531	     33.22196819	      0.57983273	      9.50957365	    -15.54381179	      0.00000000
      7.54666667	     -7.08981432	     11.18371691	      8.56477607	      1.95040355	      0.94252504	      0.97584505	      9.01015369	    -21.64741620	    -14.43218424	     87.31139558	      1.52387133	    -13.79916184	    -27.38691163	      0.00000000	     24.16170939	     16.05085219	     -3.82033060	     34.55556921	      0.60310846	     10.73970412	    -16.44765692	      0.00000000
      7.55333333	     -7.51082979	     11.79882349	      8.57766107	      1.94752833	      0.93911207	      0.97558577	     12.01975239	    -22.37177615	    -12.58684759	     90.35795981	      1.57704390	    -12.81220920	    -27.65940372	      0.00000000	     24.23013842	     16.79370066	     -3.48968759	     35.69090147	      0.62292374	     11.89538492	    -17.15699938	      0.00000000
      7.56000000	     -7.93189401	     12.35715164	      8.49973773	      1.94461685	      0.93620364	      0.97551295	     15.14442892	    -22.89739097	    -10.56464067	     93.12545640	      1.62534583	    -11.84973777	    -27.77111585	      0.00000000	     24.19080270	     17.42903612	     -3.19490329	     36.58813874	      0.63858349	     12.91117786	    -17.74821582	      0.00000000
      7.56666667	     -8.33683083	     12.76872708	      8.29176787	      1.94184557	      0.93383267	      0.97576338	     18.34046822	    -23.04648368	     -8.38410606	     95.57478716	      1.66809472	    -10.94225584	    -27.71041224	      0.00000000	     24.04501170	     17.80636944	     -3.06133296	     37.29494088	      0.65091951	     13.90751192	    -18.05442349	      0.00000000
      7.57333333	     -8.74613683	     13.10188671	      7.97774796	      1.93909519	      0.93196216	      0.97616069	     21.60335663	    -22.96300168	     -6.12274258	     97.71065725	      1.70537268	    -10.10352466	    -27.50833111	      0.00000000	     23.79326063	     18.05116815	     -3.00339600	     37.75356163	      0.65892395	     14.79674747	    -18.20150932	      0.00000000
